HIERARCHY
ROOT root
{
	OFFSET 0.000000 0.000000 0.000000
	CHANNELS 6 Xposition Yposition Zposition Zrotation Yrotation Xrotation
	JOINT lhip
	{
		OFFSET 0.058581 -0.082280 -0.017664
		CHANNELS 3 Zrotation Yrotation Xrotation
		JOINT lknee
		{
			OFFSET 0.043451 -0.386469 0.008037
			CHANNELS 3 Zrotation Yrotation Xrotation
			JOINT lankle
			{
				OFFSET -0.014790 -0.426874 -0.037428
				CHANNELS 3 Zrotation Yrotation Xrotation
				JOINT ltoe
				{
					OFFSET 0.041054 -0.060286 0.122042
					CHANNELS 3 Zrotation Yrotation Xrotation
					End Site
					{
						OFFSET 0.000000 0.000000 0.000000
					}
				}
			}
		}
	}
	JOINT rhip
	{
		OFFSET -0.060310 -0.090513 -0.013543
		CHANNELS 3 Zrotation Yrotation Xrotation
		JOINT rknee
		{
			OFFSET -0.043257 -0.383688 -0.004843
			CHANNELS 3 Zrotation Yrotation Xrotation
			JOINT rankle
			{
				OFFSET 0.019056 -0.420046 -0.034562
				CHANNELS 3 Zrotation Yrotation Xrotation
				JOINT rtoe
				{
					OFFSET -0.034840 -0.062106 0.130323
					CHANNELS 3 Zrotation Yrotation Xrotation
					End Site
					{
						OFFSET 0.000000 0.000000 0.000000
					}
				}
			}
		}
	}
	JOINT lowerback
	{
		OFFSET 0.004439 0.124404 -0.038385
		CHANNELS 3 Zrotation Yrotation Xrotation
		JOINT upperback
		{
			OFFSET 0.004488 0.137956 0.026820
			CHANNELS 3 Zrotation Yrotation Xrotation
			JOINT chest
			{
				OFFSET -0.002265 0.056032 0.002855
				CHANNELS 3 Zrotation Yrotation Xrotation
				JOINT lowerneck
				{
					OFFSET -0.013390 0.211636 -0.033468
					CHANNELS 3 Zrotation Yrotation Xrotation
					JOINT upperneck
					{
						OFFSET 0.010113 0.088937 0.050410
						CHANNELS 3 Zrotation Yrotation Xrotation
						End Site
						{
							OFFSET 0.000000 0.000000 0.000000
						}
					}
				}
				JOINT lclavicle
				{
					OFFSET 0.071702 0.114000 -0.018898
					CHANNELS 3 Zrotation Yrotation Xrotation
					JOINT lshoulder
					{
						OFFSET 0.122921 0.045205 -0.019046
						CHANNELS 3 Zrotation Yrotation Xrotation
						JOINT lelbow
						{
							OFFSET 0.255332 -0.015649 -0.022946
							CHANNELS 3 Zrotation Yrotation Xrotation
							JOINT lwrist
							{
								OFFSET 0.265709 0.012698 -0.007375
								CHANNELS 3 Zrotation Yrotation Xrotation
								End Site
								{
									OFFSET 0.000000 0.000000 0.000000
								}
							}
						}
					}
				}
				JOINT rclavicle
				{
					OFFSET -0.082954 0.112472 -0.023707
					CHANNELS 3 Zrotation Yrotation Xrotation
					JOINT rshoulder
					{
						OFFSET -0.113228 0.046853 -0.008472
						CHANNELS 3 Zrotation Yrotation Xrotation
						JOINT relbow
						{
							OFFSET -0.260127 -0.014369 -0.031269
							CHANNELS 3 Zrotation Yrotation Xrotation
							JOINT rwrist
							{
								OFFSET -0.269108 0.006794 -0.006027
								CHANNELS 3 Zrotation Yrotation Xrotation
								End Site
								{
									OFFSET 0.000000 0.000000 0.000000
								}
							}
						}
					}
				}
			}
		}
	}
}
MOTION
Frames: 11
Frame Time: 0.033333
2.332050 0.697974 0.999411 -73.987837 0.083823 82.401947 -3.086847 -3.364591 4.131829 0.558586 -15.365337 4.780907 0.301795 6.041064 -11.920227 0.000000 -0.000000 0.000000 3.020086 -6.567031 5.701503 -5.380939 -7.543415 6.275272 0.912312 -13.151962 -15.559404 0.000000 -0.000000 0.000000 0.828431 5.183839 12.879870 -2.919860 -0.041132 -0.165350 0.676361 0.681175 -0.215257 0.342190 30.740806 -6.880931 -2.655542 23.257576 -3.368424 -24.684383 -7.638992 -0.132577 -53.102824 -7.758925 13.436055 -4.926353 -20.854898 23.892883 -1.899445 -3.295001 -2.459356 21.122879 6.712265 4.685882 62.266787 5.458972 20.753189 -0.428619 27.223446 16.811535 -7.088918 0.982175 -2.945090 
2.333737 0.700398 0.997578 -74.538279 -0.515479 83.516088 -3.444683 -4.166859 2.585532 0.330522 -14.150197 4.961890 0.248928 6.182164 -11.043200 0.000000 -0.000000 0.000000 2.658504 -5.014347 3.910178 -5.417619 -8.001717 7.101626 1.012973 -13.615802 -15.594066 0.000000 -0.000000 0.000000 -0.394531 5.796398 12.249093 -2.748369 0.256420 -1.266702 0.955671 0.468681 0.187374 0.592329 30.591093 -6.009015 -2.334738 23.399451 -3.776207 -24.325381 -7.322122 0.102465 -53.326048 -7.868982 13.587642 -5.003272 -20.908196 22.855574 -4.578781 -3.160686 -2.616343 20.954976 6.348639 4.850553 62.671098 5.374228 21.052863 -1.193005 28.066920 17.091030 -0.362442 -0.430445 -4.033544 
2.334475 0.701884 0.996556 -74.821344 -0.862062 84.104307 -3.647152 -4.319788 1.704888 0.223432 -13.432300 5.219918 0.048609 6.045962 -10.902686 0.000000 -0.000000 0.000000 2.355858 -4.429626 2.963018 -5.492707 -8.289781 7.559907 1.302888 -13.530160 -15.544762 0.000000 -0.000000 0.000000 -1.082486 6.040090 11.813524 -2.686741 0.576091 -1.563312 1.199160 0.168375 0.166501 0.861288 30.305606 -5.752501 -1.984471 23.943791 -3.251837 -24.383099 -7.173041 0.242275 -53.370780 -7.481519 13.555771 -4.843048 -21.275668 21.645900 -8.118302 -3.282459 -2.747601 20.842267 6.111551 4.815860 62.918637 5.476018 20.664949 -2.162722 29.318271 15.110994 10.400205 -2.198156 -8.113020 
2.334542 0.702470 0.996642 -74.775781 -0.852633 84.042004 -3.555073 -4.332384 1.717153 0.086426 -13.490542 5.323652 0.219241 6.163703 -10.792662 0.000000 -0.000000 0.000000 2.336239 -4.343721 3.090597 -5.410614 -8.116182 7.443057 1.068143 -14.016643 -15.336865 0.000000 -0.000000 0.000000 -1.041865 5.949222 11.864601 -2.773694 0.601882 -1.685316 1.184879 -0.015921 0.054462 1.331704 29.823372 -4.809877 -2.014594 24.714379 -3.676238 -24.814848 -7.203613 0.861102 -52.933755 -7.485408 13.185828 -4.727441 -21.300527 21.838327 -5.416276 -3.881723 -1.548288 21.250805 6.423192 5.384710 62.731065 5.380716 20.718267 -1.959178 28.460377 15.989505 2.918273 0.728920 -3.781521 
2.334636 0.702695 0.996603 -74.798566 -0.804693 84.076279 -3.488204 -4.372711 1.691851 0.096749 -13.500756 5.280328 0.238369 6.203652 -10.845759 0.000000 -0.000000 0.000000 2.361838 -4.381320 3.021831 -5.353899 -8.107324 7.468072 1.156255 -13.996699 -15.437606 0.000000 -0.000000 0.000000 -1.035337 5.946949 11.791331 -2.758497 0.616184 -1.578768 1.220956 -0.063501 0.036172 1.346410 29.851967 -4.848155 -2.015685 24.816457 -3.688919 -24.960494 -7.190843 0.854447 -52.875890 -7.503314 13.093100 -4.772052 -21.481958 21.372791 -5.495602 -3.362573 -1.669109 21.325543 6.422141 5.416427 62.625011 5.497747 20.666064 -2.035013 28.418622 15.940988 3.349421 0.622724 -3.441032 
2.334942 0.702999 0.996382 -74.855616 -0.868638 83.804697 -3.494377 -4.346021 1.953323 0.032566 -13.312474 5.309817 0.181740 6.144128 -10.838988 0.000000 -0.000000 0.000000 2.288034 -4.424941 3.274908 -5.359857 -8.003835 7.515262 0.887693 -14.003652 -15.432851 0.000000 -0.000000 0.000000 -0.919452 5.539526 11.093741 -2.844832 0.105861 0.195420 0.884412 0.572364 -0.121918 1.135832 30.142584 -5.303617 -2.177874 24.771091 -4.199806 -24.677989 -7.494140 0.781773 -52.580725 -7.592618 12.770350 -4.813648 -21.893596 20.594648 -6.125786 -3.187689 -2.005367 21.534442 7.159196 5.594553 62.731603 6.047190 20.534673 -2.805278 28.293640 15.298293 4.735550 0.588949 -2.947611 
2.335079 0.702852 0.996389 -74.861040 -0.872122 83.816431 -3.436298 -4.344240 1.891334 -0.123470 -13.251390 5.409238 0.028223 5.960014 -10.681309 0.000000 -0.000000 0.000000 2.214450 -4.422809 3.238359 -5.295187 -8.019952 7.564454 0.886549 -13.822156 -15.325456 0.000000 -0.000000 0.000000 -0.949063 5.541621 11.075310 -2.815850 0.062887 0.291050 0.887590 0.595291 -0.181534 1.109061 30.144008 -5.480354 -2.020455 24.824235 -4.161539 -24.657712 -7.500141 0.787079 -52.702615 -7.531751 12.788509 -4.544893 -21.926715 20.450643 -6.568345 -3.399352 -1.994942 21.558143 7.152190 5.450866 62.723962 5.902024 20.451924 -3.221387 28.302975 15.410578 6.229284 0.584102 -2.431784 
2.335301 0.702877 0.996431 -74.847408 -0.820793 83.857311 -3.400243 -4.401182 1.867163 -0.021393 -13.198935 5.341643 0.062081 5.929454 -10.824703 0.000000 -0.000000 0.000000 2.264963 -4.423867 3.167670 -5.331592 -8.147106 7.598071 1.029419 -13.778941 -15.221763 0.000000 -0.000000 0.000000 -0.963833 5.530749 10.977640 -2.754266 0.030927 0.410439 0.940297 0.626101 -0.196115 1.065978 30.110607 -5.528109 -2.049941 24.852449 -4.191595 -24.575952 -7.498989 0.764042 -52.859990 -7.543831 12.768341 -4.497656 -21.954428 20.343334 -7.098759 -3.364818 -2.045453 21.433876 7.131834 5.377105 62.806282 5.886488 20.436838 -3.425892 28.669503 15.712571 7.600738 0.417389 -2.128434 
2.335271 0.702749 0.996421 -74.891287 -0.840992 83.823276 -3.477246 -4.429391 2.025528 0.098160 -13.214035 5.149261 0.093375 6.062314 -10.681615 0.000000 -0.000000 0.000000 2.253799 -4.381821 3.216267 -5.356019 -8.100727 7.583555 1.003234 -13.823503 -15.256612 0.000000 -0.000000 0.000000 -0.947637 5.554669 11.041136 -2.793102 0.065044 0.394163 0.939334 0.611126 -0.201100 1.043369 30.048926 -5.613851 -2.057286 24.819085 -4.341454 -24.423179 -7.307696 0.613287 -52.985464 -7.566004 12.800603 -4.668673 -21.998700 20.519570 -7.298317 -3.329848 -2.102185 21.298548 6.977415 5.181696 62.943536 5.817567 20.496536 -3.397151 28.696927 15.875043 8.124758 0.329875 -2.057400 
2.335355 0.702615 0.996578 -74.855329 -0.819600 83.841312 -3.407231 -4.360510 1.957274 -0.001619 -13.200076 5.246410 -0.067986 5.926614 -10.735545 0.000000 -0.000000 0.000000 2.222356 -4.403133 3.202630 -5.317723 -8.175654 7.621059 1.113742 -13.741246 -15.413043 0.000000 -0.000000 0.000000 -0.946476 5.593497 11.001285 -2.774142 0.115790 0.388490 0.959691 0.524198 -0.200348 1.026313 30.056919 -5.516028 -2.125687 24.834262 -4.526395 -24.455116 -7.373846 0.704017 -53.044413 -7.541629 12.856882 -4.495230 -22.046141 20.563831 -7.276597 -3.346005 -2.242026 21.164244 6.913779 5.171058 63.013716 5.708745 20.545313 -3.304924 28.809764 15.790715 7.869334 0.234935 -2.882884 
2.335351 0.702509 0.996523 -74.882320 -0.833702 83.844162 -3.406821 -4.363097 1.925150 -0.042499 -13.177541 5.309114 0.040450 5.855196 -10.810769 0.000000 -0.000000 0.000000 2.216068 -4.383993 3.183611 -5.353513 -8.202065 7.653803 1.040000 -13.833897 -15.267188 0.000000 -0.000000 0.000000 -0.918840 5.538383 10.969164 -2.805486 0.119397 0.427796 0.902181 0.601662 -0.195396 1.015406 30.010469 -5.681175 -2.212921 24.793442 -4.528891 -24.450381 -7.315647 0.603893 -53.013951 -7.597343 12.799663 -4.515188 -21.841683 20.566609 -7.666013 -3.438636 -2.300532 21.180940 6.913041 5.173540 63.066888 5.771739 20.568443 -3.387383 28.713700 15.810611 8.133677 0.284953 -2.641155 
